<svg width="26" height="32" fill="none" xmlns="http://www.w3.org/2000/svg"><path d="M23.5 4H18V3c0-1.654-1.346-3-3-3h-4C9.346 0 8 1.346 8 3v1H2.5A2.503 2.503 0 000 6.5V10a1 1 0 001 1h.546l.864 18.143A2.996 2.996 0 005.407 32h15.186a2.996 2.996 0 002.997-2.857L24.453 11H25a1 1 0 001-1V6.5C26 5.122 24.878 4 23.5 4zM10 3c0-.551.449-1 1-1h4c.551 0 1 .449 1 1v1h-6V3zM2 6.5a.5.5 0 01.5-.5h21a.5.5 0 01.5.5V9H2V6.5zm19.592 22.548a.999.999 0 01-.999.952H5.407a.999.999 0 01-.999-.952L3.548 11h18.903l-.86 18.048z" fill="#fff"/><path d="M13 28a1 1 0 001-1V14a1 1 0 10-2 0v13a1 1 0 001 1zm5 0a1 1 0 001-1V14a1 1 0 10-2 0v13a1 1 0 001 1zM8 28a1 1 0 001-1V14a1 1 0 00-2 0v13a1 1 0 001 1z" fill="#fff"/></svg>