<svg width="32" height="32" fill="none" xmlns="http://www.w3.org/2000/svg"><g clip-path="url(#clip0)"><path d="M11.148 17.988l-6.58 6.58L2 22a2 2 0 00-2 2v6c0 1.105.894 2 2 2h6a2 2 0 002-2l-2.568-2.566 6.58-6.582-2.863-2.863-.001-.001zM30 0h-6a2 2 0 00-2 2l2.568 2.568-6.58 6.58 2.863 2.863 6.58-6.579 2.568 2.567a2 2 0 002-2v-6a2 2 0 00-2-2L30 0zm0 22l-2.568 2.568-6.58-6.58-2.863 2.863 6.58 6.582L22.001 30a2 2 0 002 2h6a2 2 0 002-2v-6a2 2 0 00-2-2H30zM10 2a2 2 0 00-2-2H2a2 2 0 00-2 2v6c0 1.105.894 2 2 2l2.568-2.567 6.58 6.579 2.863-2.863-6.58-6.58 2.568-2.568L10 2z" fill="#fff"/></g><defs><clipPath id="clip0"><path fill="#fff" d="M0 0h32v32H0z"/></clipPath></defs></svg>