<svg width="26" height="32" viewBox="0 0 26 32" fill="none" xmlns="http://www.w3.org/2000/svg">
<path d="M23.5 4H18V3C18 1.34581 16.6542 0 15 0H11C9.34581 0 8 1.34581 8 3V4H2.5C1.1215 4 0 5.1215 0 6.5V10C0 10.5523 0.44775 11 1 11H1.5465L2.41044 29.1427C2.48675 30.7449 3.803 32 5.407 32H20.593C22.1971 32 23.5133 30.7449 23.5896 29.1427L24.4535 11H25C25.5523 11 26 10.5523 26 10V6.5C26 5.1215 24.8785 4 23.5 4ZM10 3C10 2.44863 10.4486 2 11 2H15C15.5514 2 16 2.44863 16 3V4H10V3ZM2 6.5C2 6.22431 2.22431 6 2.5 6H23.5C23.7757 6 24 6.22431 24 6.5V9C23.6918 9 3.27706 9 2 9V6.5ZM21.5918 29.0476C21.5664 29.5816 21.1276 30 20.593 30H5.407C4.87231 30 4.43356 29.5816 4.40819 29.0476L3.54875 11H22.4513L21.5918 29.0476Z" fill="white"/>
<path d="M13 28C13.5523 28 14 27.5523 14 27V14C14 13.4477 13.5523 13 13 13C12.4477 13 12 13.4477 12 14V27C12 27.5523 12.4477 28 13 28Z" fill="white"/>
<path d="M18 28C18.5523 28 19 27.5523 19 27V14C19 13.4477 18.5523 13 18 13C17.4477 13 17 13.4477 17 14V27C17 27.5523 17.4477 28 18 28Z" fill="white"/>
<path d="M8 28C8.55225 28 9 27.5523 9 27V14C9 13.4477 8.55225 13 8 13C7.44775 13 7 13.4477 7 14V27C7 27.5523 7.44769 28 8 28Z" fill="white"/>
</svg>
