<svg width="32" height="32" viewBox="0 0 32 32" fill="none" xmlns="http://www.w3.org/2000/svg">
<g clip-path="url(#clip0)">
<path d="M11.148 17.988L4.568 24.568L2 22C0.895 22 0 22.895 0 24V30C0 31.105 0.894 32 2 32H8C9.105 32 10 31.105 10 30L7.432 27.434L14.012 20.852L11.149 17.989L11.148 17.988ZM30 2.34375e-05H24C22.895 2.34375e-05 22 0.895023 22 2.00002L24.568 4.56802L17.988 11.148L20.851 14.011L27.431 7.43202L29.999 9.99902C31.104 9.99902 31.999 9.10402 31.999 7.99902V1.99902C31.999 0.894023 31.104 -0.000976562 29.999 -0.000976562L30 2.34375e-05ZM30 22L27.432 24.568L20.852 17.988L17.989 20.851L24.569 27.433L22.001 30C22.001 31.105 22.896 32 24.001 32H30.001C31.106 32 32.001 31.105 32.001 30V24C32.001 22.895 31.106 22 30.001 22H30ZM10 2.00002C10 0.895023 9.105 2.34375e-05 8 2.34375e-05H2C0.895 2.34375e-05 0 0.895023 0 2.00002V8.00002C0 9.10502 0.894 10 2 10L4.568 7.43302L11.148 14.012L14.011 11.149L7.431 4.56902L9.999 2.00102L10 2.00002Z" fill="white"/>
</g>
<defs>
<clipPath id="clip0">
<rect width="32" height="32" fill="white"/>
</clipPath>
</defs>
</svg>
